# AST/ASF file generated using VICON BodyLanguage
# -----------------------------------------------
:version 1.10
:name VICON
:units
  mass 1.0
  length 0.45
  angle deg
:documentation
   .ast/.asf automatically generated from VICON data using
   VICON BodyBuilder and BodyLanguage model FoxedUp or BRILLIANT.MOD
:root
   order TX TY TZ RX RY RZ
   axis XYZ
   position 0 0 0  
   orientation 0 0 0 
:bonedata
  begin
     id 1 
     name lhipjoint
     direction 0.734343 -0.627749 0.258209 
     length 2.5437 
     axis 0 0 0  XYZ
  end
  begin
     id 2 
     name lfemur
     direction 0.34202 -0.939693 0  
     length 6.7391  
     axis 0 0 20  XYZ
    dof rx ry rz
    limits (-160.0 20.0)
           (-70.0 70.0)
           (-60.0 70.0)
  end
  begin
     id 3 
     name ltibia
     direction 0.34202 -0.939693 0   
     length 7.21536   
     axis 0 0 20   XYZ
    dof rx
    limits (-10.0 170.0)
  end
  begin
     id 4 
     name lfoot
     direction 0.0489572 -0.134509 0.989702   
     length 1.61313   
     axis -90 7.62852e-016 20   XYZ
    dof rx rz
    limits (-45.0 90.0)
           (-70.0 20.0)
  end
  begin
     id 5 
     name ltoes
     direction 1.53451e-011 -4.21692e-011 1   
     length 0.823104   
     axis -90 7.62852e-016 20   XYZ
    dof rx
    limits (-90.0 20.0)
  end
  begin
     id 6 
     name rhipjoint
     direction -0.746398 -0.615468 0.253157   
     length 2.59446  
     axis 0 0 0  XYZ 
  end
  begin
     id 7 
     name rfemur
     direction -0.34202 -0.939693 0   
     length 6.7075   
     axis 0 0 -20   XYZ
    dof rx ry rz
    limits (-160.0 20.0)
           (-70.0 70.0)
           (-70.0 60.0)
  end
  begin
     id 8 
     name rtibia
     direction -0.34202 -0.939693 0   
     length 7.27262   
     axis 0 0 -20   XYZ
    dof rx
    limits (-10.0 170.0)
 end
 begin
     id 9 
     name rfoot
     direction -0.0455203 -0.125066 0.991104   
     length 1.91095  
     axis -90 -7.62852e-016 -20   XYZ
    dof rx rz
    limits (-45.0 90.0)
           (-20.0 70.0)
  end
  begin
     id 10 
     name rtoes
     direction -1.53601e-011 -4.21913e-011 1   
     length 0.969037   
     axis -90 -7.62852e-016 -20   XYZ
    dof rx
    limits (-90.0 20.0)
  end
  begin
     id 11 
     name lowerback
     direction 0.0181546 0.999122 -0.0377542   
     length 1.99916   
     axis 0 0 0   XYZ
    dof rx ry rz
    limits (-20.0 45.0)
           (-30.0 30.0)
           (-30.0 30.0)
  end
  begin
     id 12 
     name upperback
     direction 0.0203486 0.99589 0.0882534   
     length 1.951   
     axis 0 0 0   XYZ
    dof rx ry rz
    limits (-20.0 45.0)
           (-30.0 30.0)
           (-30.0 30.0)
  end
  begin
     id 13 
     name thorax
     direction 0.0131685 0.994241 0.106355   
     length 1.97461   
     axis 0 0 0   XYZ
    dof rx ry rz
    limits (-20.0 45.0)
           (-30.0 30.0)
           (-30.0 30.0)
  end
  begin
     id 14 
     name lowerneck
     direction -0.0281395 0.999325 0.023617   
     length 1.7959   
     axis 0 0 0   XYZ
    dof rx ry rz
    limits (-20.0 45.0)
           (-30.0 30.0)
           (-30.0 30.0)
  end
  begin
     id 15 
     name upperneck
     direction 0.0288721 0.991984 -0.123019   
     length 1.79917   
     axis 0 0 0   XYZ
    dof rx ry rz
    limits (-20.0 45.0)
           (-30.0 30.0)
           (-30.0 30.0)
  end
  begin
     id 16
     name head
     direction 0.0133797 0.998944 -0.0439492  
     length 1.80902  
     axis 0 0 0   XYZ
    dof rx ry rz
    limits (-20.0 45.0)
           (-30.0 30.0)
           (-30.0 30.0)
  end
  begin
     id 17 
     name lclavicle
     direction 0.919195 0.377107 0.113449  
     length 3.17815  
     axis 0 0 0   XYZ
    dof ry rz
    limits (-20.0 10.0)
           (0.0 20.0)
  end
  begin
     id 18 
     name lhumerus
     direction 1 -4.48959e-011 2.13129e-027   
     length 4.84137   
     axis 180 -30 -90   XYZ
    dof rx ry rz
    limits (-60.0 90.0)
           (-90.0 90.0)
           (-90.0 90.0)
  end
  begin
     id 19
     name lradius
     direction 1 -4.48957e-011 -6.30627e-028   
     length 3.2452   
     axis 180 -30 -90   XYZ
    dof rx
    limits (-10.0 170.0)
  end
  begin
     id 20
     name lwrist
     direction 1 -4.4901e-011 9.13299e-027   
     length 1.6226   
     axis -6.84618e-015 90 90   XYZ
    dof ry
    limits (-180.0 0.0)
 end
  begin
     id 21 
     name lhand
     direction 1 -4.48816e-011 1.82293e-026   
     length 0.521221   
     axis -1.16502e-014 90 90   XYZ
    dof rx rz
    limits (-90.0 90.0)
           (-45.0 45.0)
  end
  begin
     id 22 
     name lfingers
     direction 1 -4.49108e-011 3.65687e-026   
     length 0.420221   
     axis -2.33008e-014 90 90   XYZ
    dof rx
    limits (0.0 90.0)
  end
  begin
     id 23
     name lthumb
     direction 0.707107 -6.34943e-011 0.707107   
     length 0.603356   
     axis -90 45 5.69224e-014   XYZ
    dof rx rz
    limits (-45.0 45.0)
           (-45.0 45.0)
  end
  begin
     id 24 
     name rclavicle
     direction -0.90847 0.38596 0.160368   
     length 3.12973  
     axis 0 0 0   XYZ 
    dof ry rz
    limits (-10.0 20.0)
           (-20.0 0.0)
  end
  begin
     id 25 
     name rhumerus
     direction -1 -4.48974e-011 4.47268e-028  
     length 4.72284   
     axis 180 30 90   XYZ
    dof rx ry rz
    limits (-90.0 60.0)
           (-90.0 90.0)
           (-90.0 90.0)
  end
  begin
     id 26 
     name rradius
     direction -1 -4.48969e-011 3.43203e-027   
     length 3.23459   
     axis 180 30 90   XYZ
    dof rx
    limits (-10.0 170.0)
  end
  begin
     id 27 
     name rwrist
     direction -1 -4.48969e-011 9.12911e-027   
     length 1.6173   
     axis -6.84618e-015 -90 -90   XYZ
    dof ry
    limits (-180.0 0.0)
  end
  begin
     id 28
     name rhand
     direction -1 -4.49194e-011 1.83006e-026   
     length 0.307416   
     axis -1.16502e-014 -90 -90   XYZ
    dof rx rz
    limits (-90.0 90.0)
           (-45.0 45.0)
  end
  begin
     id 29
     name rfingers
     direction -1 -4.48423e-011 3.63103e-026   
     length 0.247847   
     axis -2.33008e-014 -90 -90   XYZ
    dof rx
    limits (0.0 90.0)
  end
  begin
     id 30
     name rthumb
     direction -0.707107 -6.34802e-011 0.707107   
     length 0.35586   
     axis -90 -45 -5.69224e-014   XYZ
    dof rx rz
    limits (-45.0 45.0)
           (-45.0 45.0)
  end
:hierarchy
  begin
    root lhipjoint rhipjoint lowerback
    lhipjoint lfemur
    lfemur ltibia
    ltibia lfoot
    lfoot ltoes
    rhipjoint rfemur
    rfemur rtibia
    rtibia rfoot
    rfoot rtoes
    lowerback upperback
    upperback thorax
    thorax lowerneck lclavicle rclavicle
    lowerneck upperneck
    upperneck head
    lclavicle lhumerus
    lhumerus lradius
    lradius lwrist
    lwrist lhand lthumb
    lhand lfingers
    rclavicle rhumerus
    rhumerus rradius
    rradius rwrist
    rwrist rhand rthumb
    rhand rfingers
  end

#!OML:ASF H:\Terrain\Patient Classification 1\Animal1\Tuesday\Animal1.ASF
:FULLY-SPECIFIED
:DEGREES
459
root 19.7747 15.9174 -29.031 10.9316 -19.9264 1.82167
lowerback 4.12064 -0.58176 -0.381024
upperback 1.58713 -0.790985 0.216238
thorax -0.67321 -0.398265 0.471651
lowerneck -7.43927 1.18612 -6.19444
upperneck 17.4642 0.948166 8.55064
head 6.41939 0.714288 3.8535
rclavicle -3.43897e-014 2.52457e-014
rhumerus -30.3017 17.7406 -90.7306
rradius 32.991
rwrist -10.6017
rhand -14.3262 20.07
rfingers 7.12502
rthumb 11.8145 -9.57675
lclavicle -3.43897e-014 2.52457e-014
lhumerus -33.6417 -6.95561 88.2547
lradius 41.0443
lwrist -25.7789
lhand 16.959 45.1567
lfingers 7.12502
lthumb 41.6923 69.849
rfemur -36.7326 19.7165 12.1987
rtibia 28.6745
rfoot -10.38 -33.6648
rtoes 11.1414
lfemur -8.0567 -12.5453 -24.7391
ltibia 19.3044
lfoot -15.6053 23.7373
ltoes -13.1526
460
root 19.7135 15.9117 -28.9724 10.98 -19.8166 1.28752
lowerback 4.27025 -0.549531 0.145264
upperback 1.61458 -0.725703 0.398173
thorax -0.73347 -0.364826 0.361505
lowerneck -7.46673 1.23001 -6.10303
upperneck 17.4146 1.02368 8.41524
head 6.40489 0.746829 3.79842
rclavicle 4.27387e-014 2.18663e-014
rhumerus -30.3534 17.88 -90.7902
rradius 32.8145
rwrist -10.6957
rhand -14.8328 20.2189
rfingers 7.12502
rthumb 11.326 -9.45526
lclavicle 4.27387e-014 2.18663e-014
lhumerus -33.5722 -6.60131 88.2226
lradius 41.1055
lwrist -25.9122
lhand 16.6532 44.8015
lfingers 7.12502
lthumb 41.4054 69.5876
rfemur -36.2344 19.2686 13.2523
rtibia 28.6289
rfoot -9.72521 -32.9766
rtoes 11.3834
lfemur -8.42494 -11.7581 -24.1118
ltibia 20.7874
lfoot -15.3282 23.8048
ltoes -14.8346
461
root 19.654 15.9049 -28.9203 10.9885 -19.7698 1.06404
lowerback 4.48475 -0.497632 0.305551
upperback 1.56826 -0.647084 0.538659
thorax -0.901195 -0.325533 0.414268
lowerneck -7.4112 1.21938 -6.16097
upperneck 17.2739 1.02279 8.41715
head 6.35026 0.742059 3.80456
rclavicle -8.34896e-015 -5.56597e-015
rhumerus -30.3688 17.9535 -90.782
rradius 32.5006
rwrist -10.7602
rhand -15.315 21.0478
rfingers 7.12502
rthumb 10.861 -8.65132
lclavicle -8.34896e-015 -5.56597e-015
lhumerus -33.481 -6.06598 88.1407
lradius 41.0313
lwrist -26.0579
lhand 16.6214 44.2463
lfingers 7.12502
lthumb 41.3757 69.0421
rfemur -35.8186 18.6339 14.0179
rtibia 28.5939
rfoot -8.46083 -32.3393
rtoes 8.84006
lfemur -8.98692 -10.9835 -23.776
ltibia 22.3329
lfoot -15.3731 23.476
ltoes -17.8431
462
root 19.5925 15.9042 -28.864 11.0758 -19.8706 0.783742
lowerback 4.5236 -0.424315 0.542926
upperback 1.52931 -0.537425 0.64304
thorax -0.964487 -0.270753 0.383047
lowerneck -7.40615 1.25387 -6.10544
upperneck 17.3108 1.07499 8.33078
head 6.35836 0.764102 3.77156
rclavicle 3.69739e-014 -2.10712e-014
rhumerus -30.441 17.9491 -90.7871
rradius 32.3014
rwrist -10.7095
rhand -15.2603 21.2264
rfingers 7.12502
rthumb 10.9136 -8.46993
lclavicle 3.69739e-014 -2.10712e-014
lhumerus -33.4569 -5.41245 87.9163
lradius 40.9974
lwrist -26.0679
lhand 16.7366 43.7811
lfingers 7.12502
lthumb 41.4837 68.5418
rfemur -35.5167 18.0441 14.83
rtibia 28.6421
rfoot -7.20889 -31.8934
rtoes 6.06686
lfemur -9.56259 -9.96187 -23.396
ltibia 23.859
lfoot -15.1937 22.9748
ltoes -21.2845
463
root 19.5265 15.9044 -28.8012 11.1911 -19.9891 0.416
lowerback 4.49213 -0.356711 0.820793
upperback 1.5047 -0.434087 0.768426
thorax -0.973454 -0.219221 0.350247
lowerneck -7.41817 1.33102 -5.88927
upperneck 17.3518 1.19159 8.08113
head 6.36939 0.815028 3.66322
rclavicle 1.2921e-015 1.15295e-014
rhumerus -30.4433 17.8911 -90.7909
rradius 31.9998
rwrist -10.4324
rhand -15.3035 21.1265
rfingers 7.12502
rthumb 10.872 -8.57202
lclavicle 1.2921e-015 1.15295e-014
lhumerus -33.4807 -4.85991 87.8321
lradius 41.0485
lwrist -25.9418
lhand 16.1322 43.9292
lfingers 7.12502
lthumb 40.9163 68.8721
rfemur -35.235 17.6869 15.6393
rtibia 28.7797
rfoot -7.71921 -30.5503
rtoes 7.61798
lfemur -10.0289 -8.84576 -22.9298
ltibia 25.3663
lfoot -15.3633 22.1906
ltoes -21.9488
464
root 19.4612 15.9082 -28.7369 11.1958 -19.9986 0.411574
lowerback 4.40026 -0.351537 0.778516
upperback 1.50327 -0.429693 0.816072
thorax -0.922966 -0.217048 0.421922
lowerneck -7.43664 1.3701 -5.91351
upperneck 17.3592 1.24224 8.12088
head 6.37037 0.841395 3.68419
rclavicle 2.70347e-014 -2.22639e-014
rhumerus -30.2635 18.0197 -90.8163
rradius 31.5464
rwrist -10.3431
rhand -15.3844 20.7906
rfingers 7.12502
rthumb 10.794 -8.91208
lclavicle 2.70347e-014 -2.22639e-014
lhumerus -33.4725 -4.45342 87.8564
lradius 41.0731
lwrist -25.7272
lhand 14.8767 44.1809
lfingers 7.12502
lthumb 39.7356 69.4862
rfemur -34.9768 17.499 15.9412
rtibia 28.9446
rfoot -8.50247 -30.2869
rtoes 7.48508
lfemur -10.5896 -7.77663 -22.8341
ltibia 26.9788
lfoot -15.6986 21.4162
ltoes -21.5723
465
root 19.3938 15.9148 -28.6721 11.1551 -20.017 0.651009
lowerback 4.22119 -0.339671 0.594858
upperback 1.49719 -0.42449 0.720704
thorax -0.828689 -0.214271 0.425635
lowerneck -7.48098 1.3913 -5.94722
upperneck 17.4409 1.24017 8.31382
head 6.40129 0.854093 3.75508
rclavicle -4.69132e-014 4.77083e-014
rhumerus -30.1122 17.9026 -90.902
rradius 31.1763
rwrist -10.2721
rhand -15.2374 20.2323
rfingers 7.12502
rthumb 10.9357 -9.46287
lclavicle -4.69132e-014 4.77083e-014
lhumerus -33.5668 -4.35953 87.811
lradius 41.146
lwrist -25.0933
lhand 13.318 44.2987
lfingers 7.12502
lthumb 38.2661 70.025
rfemur -34.7385 17.3049 15.9982
rtibia 29.0889
rfoot -8.50302 -30.4879
rtoes 7.24012
lfemur -11.3289 -6.59365 -22.9594
ltibia 28.7941
lfoot -15.8626 20.4531
ltoes -21.0638
466
root 19.3247 15.9207 -28.612 11.1736 -19.9519 0.697312
lowerback 4.16826 -0.285277 0.650873
upperback 1.44429 -0.350764 0.62057
thorax -0.854547 -0.177153 0.287903
lowerneck -7.52208 1.37356 -5.77609
upperneck 17.5921 1.17779 8.35302
head 6.46228 0.839058 3.73891
rclavicle -1.799e-014 3.06128e-014
rhumerus -30.0722 17.4731 -90.9686
rradius 30.9075
rwrist -10.1377
rhand -15.0619 20.6401
rfingers 7.12502
rthumb 11.105 -9.04603
lclavicle -1.799e-014 3.06128e-014
lhumerus -33.734 -4.60063 87.7761
lradius 41.3308
lwrist -24.4149
lhand 12.1435 44.5318
lfingers 7.12502
lthumb 37.1564 70.5557
rfemur -34.4759 17.0152 16.312
rtibia 29.2435
rfoot -8.68892 -30.369
rtoes 8.51984
lfemur -12.1846 -5.43818 -22.8108
ltibia 30.7961
lfoot -16.3124 18.8215
ltoes -17.9963
467
root 19.2571 15.928 -28.5577 11.2684 -19.6889 0.520254
lowerback 4.26486 -0.309465 0.88342
upperback 1.345 -0.370616 0.65244
thorax -1.0115 -0.187318 0.19211
lowerneck -7.51268 1.33177 -5.7285
upperneck 17.7203 1.10553 8.35564
head 6.50719 0.807553 3.72967
rclavicle 2.97183e-014 5.56597e-015
rhumerus -30.0719 17.2949 -91.0161
rradius 30.6417
rwrist -10.0131
rhand -15.1516 20.9325
rfingers 7.12502
rthumb 11.0186 -8.75834
lclavicle 2.97183e-014 5.56597e-015
lhumerus -33.9122 -4.6211 87.7439
lradius 41.5481
lwrist -24.1999
lhand 11.8665 44.4613
lfingers 7.12502
lthumb 36.8944 70.553
rfemur -34.2066 16.7696 16.821
rtibia 29.3632
rfoot -9.59383 -29.9447
rtoes 10.4592
lfemur -13.313 -4.38111 -22.4037
ltibia 33.0623
lfoot -15.8485 17.5256
ltoes -17.1314
468
root 19.1895 15.9335 -28.5047 11.3576 -19.3357 0.575322
lowerback 4.23133 -0.438484 0.827241
upperback 1.25183 -0.543004 0.712383
thorax -1.08776 -0.273566 0.293986
lowerneck -7.69167 1.35104 -5.97028
upperneck 17.9722 1.13176 8.52568
head 6.61264 0.821648 3.8372
rclavicle 6.35117e-014 1.43125e-014
rhumerus -30.0256 17.2989 -91.045
rradius 30.4279
rwrist -9.83512
rhand -15.3319 20.0311
rfingers 7.12502
rthumb 10.8446 -9.66886
lclavicle 6.35117e-014 1.43125e-014
lhumerus -34.0451 -4.2592 87.698
lradius 41.6817
lwrist -24.286
lhand 11.8819 43.9879
lfingers 7.12502
lthumb 36.909 70.0758
rfemur -34.003 16.6211 17.018
rtibia 29.4065
rfoot -9.31449 -28.8751
rtoes 17.0593
lfemur -14.7266 -3.37151 -22.257
ltibia 35.6086
lfoot -14.3569 16.8003
ltoes -18.195
469
root 19.119 15.9401 -28.4519 11.4407 -18.9763 0.636557
lowerback 4.14111 -0.522897 0.725619
upperback 1.20873 -0.659214 0.781122
thorax -1.07974 -0.331486 0.426671
lowerneck -8.07031 1.35866 -6.18317
upperneck 18.3244 1.14496 8.68678
head 6.78742 0.834801 3.94259
rclavicle -1.14301e-014 -1.70955e-014
rhumerus -29.9059 17.2393 -90.9968
rradius 30.2535
rwrist -9.80939
rhand -15.3856 19.336
rfingers 7.12502
rthumb 10.7928 -10.3667
lclavicle -1.14301e-014 -1.70955e-014
lhumerus -34.046 -3.9964 87.7059
lradius 41.7219
lwrist -24.4632
lhand 11.8124 43.7653
lfingers 7.12502
lthumb 36.8433 69.8702
rfemur -33.8032 16.7862 17.1332
rtibia 29.4578
rfoot -10.1096 -26.5696
rtoes 21.7322
lfemur -16.1811 -2.54334 -22.1055
ltibia 38.3091
lfoot -13.5183 15.7281
ltoes -14.0574
470
root 19.0488 15.9487 -28.4046 11.5275 -18.5433 0.458634
lowerback 4.21025 -0.585206 0.862363
upperback 1.17164 -0.733401 0.903943
thorax -1.15632 -0.368869 0.480723
lowerneck -8.26295 1.31057 -6.17562
upperneck 18.4938 1.0905 8.62287
head 6.88148 0.808033 3.92402
rclavicle 2.23633e-014 -5.56597e-015
rhumerus -29.8861 17.3492 -90.8906
rradius 30.1527
rwrist -10.0135
rhand -15.2905 19.3794
rfingers 7.12502
rthumb 10.8846 -10.3185
lclavicle 2.23633e-014 -5.56597e-015
lhumerus -33.9469 -4.00017 87.7647
lradius 41.7294
lwrist -24.3297
lhand 11.7267 44.2009
lfingers 7.12502
lthumb 36.7621 70.3265
rfemur -33.565 17.0081 17.5248
rtibia 29.5833
rfoot -9.95849 -28.2688
rtoes 18.1392
lfemur -17.7021 -1.81452 -21.6995
ltibia 41.0855
lfoot -12.2924 14.6903
ltoes -9.96233
471
root 18.9856 15.9503 -28.358 11.5278 -18.0598 0.496426
lowerback 4.35375 -0.663033 0.964188
upperback 1.06562 -0.828976 0.878989
thorax -1.34686 -0.417113 0.405745
lowerneck -8.16081 1.23931 -6.07231
upperneck 18.4624 0.974506 8.61506
head 6.86355 0.756894 3.89268
rclavicle 8.64713e-015 -1.74931e-014
rhumerus -30.137 17.4491 -90.8927
rradius 30.2901
rwrist -10.2701
rhand -14.9322 18.8349
rfingers 7.12502
rthumb 11.2301 -10.8445
lclavicle 8.64713e-015 -1.74931e-014
lhumerus -33.8832 -4.21009 87.7788
lradius 41.6947
lwrist -23.9883
lhand 11.6786 44.6026
lfingers 7.12502
lthumb 36.7166 70.7398
rfemur -33.2992 16.8123 17.7953
rtibia 29.6885
rfoot -9.66776 -28.6549
rtoes 16.8563
lfemur -19.2694 -1.12899 -21.5829
ltibia 43.9183
lfoot -9.98926 13.9399
ltoes -8.86026
